# xmcd
#
# Track frame offsets: 
#        150
#        24848
#        27688
#        62596
#        92087
#        108877
#        120636
#        153148
#        197622
#        221109
#        225071
#
# Disc length: 3892 seconds
#
# Revision: 2
# Processed by: cddbd v1.5.2PL0 Copyright (c) Steve Scherf et al.
# Submitted via: ExactAudioCopyFreeDBPlugin 1.0
#
DISCID=800f320b
DTITLE=Rolf Wikström - Live 2005
DYEAR=2006
DGENRE=Blues
TTITLE0=Har kommit för långt
TTITLE1=Intro till Jag älskar dig ändå
TTITLE2=Jag älskar dig ändå
TTITLE3=Bädda med rena lakan
TTITLE4=Gud på tunnelbanan
TTITLE5=Över tusen hav
TTITLE6=I samhällets utkant
TTITLE7=Blues är allt jag har
TTITLE8=Roffes stomp
TTITLE9=Inklappning
TTITLE10=Som vattnet flyter i floden
EXTD=
EXTT0=
EXTT1=
EXTT2=
EXTT3=
EXTT4=
EXTT5=
EXTT6=
EXTT7=
EXTT8=
EXTT9=
EXTT10=
PLAYORDER=
